<mxfile host="app.diagrams.net" modified="2024-02-27T02:30:33.113Z" agent="Mozilla/5.0 (Windows NT 10.0; Win64; x64) AppleWebKit/537.36 (KHTML, like Gecko) Chrome/122.0.0.0 Safari/537.36" version="23.1.7" etag="VePKifQDcy33tDWOj1Wt" type="github">
  <diagram name="Page-1" id="vAAONAvBGMSkIAGlK6JV">
    <mxGraphModel>
      <root>
        <mxCell id="0" />
        <mxCell id="1" parent="0" />
      </root>
    </mxGraphModel>
  </diagram>
</mxfile>
